<svg width="40" height="48" viewBox="0 0 40 48" fill="none" xmlns="http://www.w3.org/2000/svg">
  <!-- Тень -->
  <filter id="shadow" x="-20%" y="-20%" width="140%" height="140%">
    <feDropShadow dx="0" dy="2" stdDeviation="2" flood-opacity="0.3" />
  </filter>
  
  <!-- Основание маркера (указатель вниз) -->
  <path d="M20 48L0 28V8C0 3.58172 3.58172 0 8 0H32C36.4183 0 40 3.58172 40 8V28L20 48Z" fill="#4285F4" filter="url(#shadow)" />
  
  <!-- Белая область для здания -->
  <rect x="6" y="6" width="28" height="22" rx="2" fill="white" />
  
  <!-- Окна и детали здания -->
  <rect x="10" y="10" width="5" height="5" rx="1" fill="#333" />
  <rect x="18" y="10" width="5" height="5" rx="1" fill="#333" />
  <rect x="26" y="10" width="5" height="5" rx="1" fill="#333" />
  
  <rect x="10" y="18" width="5" height="5" rx="1" fill="#333" />
  <rect x="18" y="18" width="5" height="5" rx="1" fill="#333" />
  <rect x="26" y="18" width="5" height="5" rx="1" fill="#333" />
  
  <!-- Дверь -->
  <rect x="18" y="23" width="5" height="5" rx="1" fill="#333" />
</svg> 