<svg width="40" height="48" viewBox="0 0 40 48" fill="none" xmlns="http://www.w3.org/2000/svg">
  <!-- Тень -->
  <filter id="shadow" x="-20%" y="-20%" width="140%" height="140%">
    <feDropShadow dx="0" dy="2" stdDeviation="2" flood-opacity="0.3" />
  </filter>
  
  <!-- Основание маркера (указатель вниз) -->
  <path d="M20 48L0 28V8C0 3.58172 3.58172 0 8 0H32C36.4183 0 40 3.58172 40 8V28L20 48Z" fill="#FF5252" filter="url(#shadow)" />
  
  <!-- Белая область для достопримечательности -->
  <rect x="6" y="6" width="28" height="22" rx="2" fill="white" />
  
  <!-- Детали достопримечательности (колонны классического здания) -->
  <rect x="8" y="8" width="24" height="4" rx="1" fill="#333" />
  <rect x="8" y="24" width="24" height="2" rx="1" fill="#333" />
  
  <rect x="10" y="12" width="3" height="12" rx="1" fill="#333" />
  <rect x="16" y="12" width="3" height="12" rx="1" fill="#333" />
  <rect x="22" y="12" width="3" height="12" rx="1" fill="#333" />
  <rect x="28" y="12" width="3" height="12" rx="1" fill="#333" />
  
  <!-- Треугольник на крыше (как классический фронтон) -->
  <path d="M20 6L8 8H32L20 6Z" fill="#333" />
</svg> 